# xmcd
#
# Track frame offsets:
#	150
#	15587
#	31490
#	43416
#	57513
#	69753
#
# Disc length: 1119 seconds
#
# Revision: 0
# Processed by: cddbd v1.5.2PL0 Copyright (c) Steve Scherf et al.
# Submitted via: audiograbber 1.83.01
#
DISCID=4c045d06
DTITLE=Keith Whitley - A Hard Act To Follow
DYEAR=1984
DGENRE=Country
TTITLE0=Turn To Love
TTITLE1=Living Like There's No Tomorrow
TTITLE2=A Hard Act To Follow
TTITLE3=If A Broken Heart Could Kill
TTITLE4=If You Think I'm Crazy
TTITLE5=Don't Our Love Look Natural
EXTD=
EXTT0=
EXTT1=
EXTT2=
EXTT3=
EXTT4=
EXTT5=
PLAYORDER=
